<svg width="113" height="121" viewBox="0 0 113 121" fill="none" xmlns="http://www.w3.org/2000/svg">
<path d="M112.269 102.228C112.274 100.985 112.391 99.7564 111.166 98.9308C110.92 98.7652 110.791 98.422 110.616 98.1556C107.456 93.3628 104.309 88.5604 101.127 83.782C100.542 82.9036 100.1 82.078 100.107 80.9428C100.258 59.2276 100.086 37.5124 100.384 15.7996C100.396 14.9596 100.42 14.1196 100.394 13.2796C100.363 12.3052 100.031 11.8948 99.142 11.8876C96.0029 11.8612 92.8662 11.8828 89.727 11.8828C88.9912 11.8828 88.6592 12.3316 88.5588 12.9892C88.5111 13.3012 88.5445 13.6276 88.5445 13.9468C88.5349 41.6596 88.5278 69.3724 88.5182 97.0876C88.5182 98.5372 87.7936 99.2628 86.3443 99.2644C65.9639 99.2644 45.5836 99.2644 25.2033 99.262C24.0685 99.262 24.0542 99.49 24.0542 98.1028C24.0494 90.0244 24.0327 81.946 24.0183 73.87C23.9825 53.794 23.9467 33.7204 23.9061 13.6444C23.9037 11.9956 23.7818 11.8708 22.1406 11.866C19.5581 11.8588 16.9756 11.8612 14.3932 11.866C12.2025 11.8708 12.2192 11.8732 12.212 14.0788C12.126 36.3532 12.4294 58.6277 12.4868 80.902C12.4868 81.742 12.3124 82.4524 11.8561 83.1388C8.85791 87.6556 5.87647 92.182 2.88548 96.7012C2.31452 97.5652 1.85583 98.5636 1.11286 99.2356C0.451116 99.8308 0.291055 100.4 0.291055 101.196C0.310167 106.875 0.312556 112.553 0.291055 118.232C0.288666 118.992 0.393781 119.65 1.0173 120.14H111.646C112.152 119.54 112.296 118.858 112.291 118.064C112.257 112.786 112.255 107.506 112.272 102.228H112.269ZM90.7639 98.1436C90.7806 89.7844 90.8092 81.4276 90.8188 73.0684C90.8403 54.0316 90.8546 34.9948 90.8714 15.958C90.8714 14.6956 91.4933 14.0644 92.7371 14.0644C94.2876 14.0644 95.8356 14.0812 97.3861 14.0572C97.9045 14.05 98.1076 14.2276 98.0717 14.7484C98.0407 15.1852 98.0622 15.6268 98.0598 16.0684C97.9786 37.9036 97.9021 59.7412 97.8066 81.5764C97.8018 82.4548 98.0192 83.17 98.5089 83.902C101.83 88.8724 105.11 93.874 108.399 98.866C108.437 98.926 108.43 99.0148 108.478 99.2668C105.943 99.2668 103.483 99.2668 101.024 99.2668C97.9642 99.2668 94.9063 99.2668 91.8461 99.262C90.771 99.262 90.7615 99.2524 90.7639 98.1412V98.1436ZM7.4317 93.8764C9.64866 90.5164 11.8704 87.1564 14.1089 83.8084C14.5699 83.1172 14.7706 82.4116 14.7611 81.5668C14.4863 59.6908 14.6512 37.8148 14.4433 15.9388C14.4266 14.0644 14.4386 14.0644 16.3235 14.0668C17.7545 14.0668 19.1831 14.0644 20.6141 14.0668C21.7297 14.0692 21.7369 14.074 21.7488 15.1468C21.7584 16.0276 21.7512 16.906 21.7512 17.7868C21.756 44.542 21.7608 71.2996 21.7655 98.0548C21.7655 98.8612 21.3554 99.2644 20.5352 99.2644C15.4109 99.2644 10.2841 99.2644 5.15978 99.2596C4.81816 99.2596 4.46459 99.3124 4.01785 99.1108C5.18606 97.318 6.30171 95.59 7.43408 93.874L7.4317 93.8764ZM109.505 108.627C109.505 111.226 109.481 113.825 109.515 116.422C109.524 117.089 109.348 117.332 108.66 117.31C107.19 117.264 105.721 117.298 104.252 117.298C88.2841 117.298 72.3186 117.298 56.3507 117.298C39.0736 117.3 21.7966 117.3 4.51715 117.3C4.27825 117.3 4.03935 117.276 3.80285 117.3C3.21038 117.363 3.0336 117.051 3.04315 116.52C3.0551 115.8 3.05271 115.083 3.05271 114.363C3.04793 110.724 3.01448 107.086 3.05271 103.448C3.06704 102.065 2.71586 102.096 4.39531 102.094C29.1403 102.089 53.8853 102.092 78.6279 102.089C88.4394 102.089 98.2485 102.084 108.06 102.08C108.258 102.08 108.459 102.096 108.655 102.08C109.326 102.017 109.534 102.32 109.522 102.987C109.484 104.866 109.508 106.745 109.505 108.624V108.627Z" fill="#111827"/>
<path d="M40.089 50.386C37.5065 50.3404 34.924 50.3668 32.3415 50.3692C31.9473 50.3692 31.5555 50.3428 31.1638 50.4796C30.4256 50.7412 29.9908 51.31 30.1293 52.0036C30.2655 52.6876 30.6573 53.1556 31.4122 53.1892C31.7299 53.2036 32.0477 53.206 32.3654 53.206C34.9073 53.206 37.4515 53.2012 39.9934 53.206C41.0732 53.2084 41.0852 53.2204 41.0852 54.2236C41.0852 60.3436 41.0852 66.4612 41.0756 72.5812C41.0756 73.6324 41.0589 73.6396 40.0316 73.6396C37.2891 73.6396 34.5489 73.6156 31.8064 73.6348C30.7457 73.642 30.1126 74.2252 30.1102 75.0796C30.1102 75.97 30.6812 76.4572 31.7992 76.462C34.5418 76.474 37.2819 76.4668 40.0245 76.4716C41.0637 76.4716 41.0732 76.4812 41.0732 77.5108C41.0804 81.55 41.078 85.5892 41.0828 89.6284C41.0828 89.986 41.0637 90.358 41.1425 90.7012C41.3169 91.4524 41.8926 91.858 42.6165 91.8076C43.295 91.7596 43.8253 91.2268 43.9042 90.4852C43.9328 90.2092 43.9137 89.926 43.9137 89.6452C43.9161 85.606 43.9185 81.5668 43.9257 77.5276C43.9257 76.4836 43.9352 76.4716 44.9553 76.4692C52.7027 76.4668 60.4502 76.4668 68.1976 76.4692C69.2082 76.4692 69.2177 76.4836 69.2201 77.5468C69.2297 81.586 69.2344 85.6252 69.232 89.6644C69.232 90.19 69.2321 90.7036 69.5211 91.1692C70.0419 92.002 71.1002 92.0524 71.7381 91.3036C72.0893 90.8908 72.0582 90.4228 72.0582 89.9452C72.0582 85.8268 72.0582 81.706 72.0582 77.5876C72.0582 76.4788 72.0678 76.4716 73.1524 76.4692C75.9737 76.462 78.7951 76.4764 81.6141 76.4548C82.5315 76.4476 82.983 75.994 83.0212 75.1852C83.057 74.3884 82.627 73.8364 81.7933 73.6852C81.4445 73.6204 81.0814 73.6372 80.7254 73.6372C78.1835 73.6348 75.6393 73.642 73.0974 73.6324C72.0725 73.6276 72.0606 73.6132 72.0582 72.5644C72.0534 66.4852 72.0558 60.406 72.0582 54.3268C72.0582 53.2132 72.0654 53.2108 73.1524 53.1964C73.4701 53.1916 73.7878 53.1988 74.1056 53.1988C76.6092 53.1988 79.1128 53.2108 81.6141 53.182C82.553 53.1724 82.9758 52.7428 83.0188 51.9148C83.0618 51.0844 82.67 50.59 81.7957 50.4364C81.4469 50.374 81.0837 50.386 80.7278 50.386C78.1859 50.3788 75.6417 50.386 73.0998 50.3692C72.0701 50.362 72.0606 50.3428 72.0582 49.3132C72.0534 44.6332 72.0582 39.9556 72.0582 35.2756C72.0582 33.7564 72.0821 32.2348 72.0486 30.7156C72.0343 30.0964 72.2326 29.8732 72.8609 29.89C74.2513 29.9284 75.6417 29.9044 77.032 29.902C78.5419 29.902 80.0517 29.9188 81.5615 29.89C82.5625 29.8708 83.014 29.4244 83.0236 28.5508C83.0331 27.7276 82.5243 27.1828 81.6213 27.0772C81.3465 27.0436 81.0646 27.0604 80.7875 27.0604C78.2839 27.058 75.7802 27.0604 73.279 27.0532C72.063 27.0484 72.0582 27.0412 72.0582 25.8196C72.0582 17.9812 72.0486 10.1428 72.0701 2.30205C72.0701 1.46925 71.9937 0.722848 71.3415 0.139648H69.9105C69.2416 0.912448 69.2058 1.82685 69.2105 2.80365C69.2344 10.4836 69.2225 18.1612 69.2177 25.8412C69.2177 27.0436 69.2129 27.0484 68.0853 27.0508C60.3785 27.0556 52.6693 27.058 44.9625 27.058C43.9352 27.058 43.9257 27.0484 43.9257 26.014C43.9209 21.1756 43.9233 16.3348 43.9209 11.4964C43.9209 11.1364 43.9591 10.7668 43.8946 10.4188C43.7751 9.77565 43.3905 9.35085 42.7144 9.25245C41.9858 9.14925 41.4985 9.44445 41.2022 10.126C41.0326 10.5148 41.0876 10.9132 41.0876 11.3068C41.0804 16.066 41.0804 20.8252 41.0804 25.5844C41.0804 25.8244 41.0613 26.0668 41.0852 26.3044C41.1401 26.8804 40.8821 27.1132 40.3231 27.058C40.1272 27.0388 39.9265 27.0532 39.7282 27.0532C37.2652 27.0532 34.8022 27.0556 32.3391 27.058C32.062 27.058 31.7801 27.0364 31.5054 27.0748C30.6215 27.1996 30.0863 27.7924 30.1174 28.582C30.1484 29.3884 30.6931 29.89 31.6344 29.8948C34.4558 29.9092 37.2771 29.926 40.0961 29.8852C40.8702 29.8732 41.1019 30.0916 41.0971 30.8908C41.0637 37.0492 41.0637 43.21 41.0947 49.3684C41.0995 50.158 40.8773 50.4028 40.0866 50.3908L40.089 50.386ZM69.232 72.2524C69.232 73.6324 69.2321 73.6372 67.9086 73.6372C64.1364 73.6396 60.3642 73.6372 56.592 73.6372V73.6276C52.741 73.6276 48.8876 73.6324 45.0365 73.6252C43.9424 73.6252 43.9376 73.606 43.9352 72.514C43.9304 66.4372 43.928 60.3628 43.9304 54.286C43.9304 53.206 43.94 53.1988 45.0676 53.1964C52.6932 53.194 60.3164 53.194 67.942 53.1964C69.2488 53.1964 69.2464 53.206 69.2464 54.4996C69.2416 60.4156 69.2392 66.3316 69.2368 72.2476L69.232 72.2524ZM45.1751 29.8972C52.8413 29.8972 60.5099 29.8972 68.1761 29.8996C69.2225 29.8996 69.2392 29.9044 69.2392 30.934C69.2392 37.1332 69.2249 43.33 69.2464 49.5292C69.2488 50.2252 69.0577 50.3956 68.3672 50.3884C64.435 50.35 60.5027 50.3692 56.5681 50.3692V50.3836C52.7935 50.3836 49.0213 50.3836 45.2468 50.3836C43.9352 50.3836 43.9328 50.3788 43.9328 49.1116C43.928 43.114 43.9233 37.114 43.9209 31.1164C43.9209 30.3068 44.3389 29.9012 45.1751 29.8996V29.8972Z" fill="#111827"/>
</svg>
