<svg width="105" height="121" viewBox="0 0 105 121" fill="none" xmlns="http://www.w3.org/2000/svg">
<path d="M104.519 18.2554C104.519 16.7256 104.499 16.7128 102.971 16.6516C99.308 16.5009 95.6421 16.4728 91.9762 16.4702C89.5593 16.4677 89.5315 16.4907 89.5289 18.9935C89.5264 24.1857 89.5188 29.3804 89.534 34.5726C89.534 35.1983 89.4707 35.6886 88.8804 36.0819C85.9771 38.0229 82.8685 39.4378 79.4079 39.9793C77.4622 40.2832 77.4596 40.2755 77.4596 38.2911C77.4596 27.0538 77.4596 15.8164 77.4596 4.57907C77.4596 3.60091 77.4495 2.6202 77.4723 1.64204C77.485 1.10315 77.2747 0.855422 76.73 0.893732C76.4361 0.916717 76.1347 0.939703 75.8458 0.893732C74.8857 0.737941 74.6627 1.12614 74.6653 2.08642C74.7033 12.9407 74.6906 23.7949 74.6906 34.6492C74.6906 36.2658 74.6425 37.885 74.6906 39.5017C74.7159 40.3164 74.4018 40.5539 73.657 40.4849C72.4004 40.3675 71.1337 40.347 69.8847 40.1785C64.8102 39.494 59.908 38.0638 55.0261 36.5749C53.4807 36.1024 53.4883 36.0692 53.4908 34.3887C53.4934 28.7266 53.4959 23.0671 53.501 17.405C53.501 17.0219 53.4959 16.6464 53.3971 16.2685C53.2223 15.5866 52.7283 15.2571 52.1152 15.2367C51.4843 15.2137 51.0106 15.5661 50.8155 16.2353C50.6939 16.6541 50.7041 17.073 50.7015 17.4995C50.699 23.0339 50.6888 28.5657 50.6838 34.0975C50.6838 35.1804 50.6838 35.1779 49.7084 34.8816C43.4914 32.9866 37.254 31.1809 30.7077 30.9102C29.783 30.8719 29.446 30.6293 29.4561 29.5719C29.5245 22.6354 29.4967 15.6964 29.4992 8.75732C29.4992 8.24908 29.5271 7.7434 29.3599 7.24283C29.1369 6.57625 28.6328 6.27233 28.0171 6.30553C27.4066 6.33874 26.8695 6.65543 26.7656 7.35776C26.6972 7.81747 26.677 8.28739 26.677 8.75477C26.6719 14.118 26.677 19.4813 26.677 24.8446C26.677 26.5889 26.6567 28.3358 26.6643 30.0802C26.6643 30.6574 26.5756 31.02 25.8511 31.0532C24.0498 31.135 22.3043 31.5666 20.5638 32.0314C18.7397 32.5192 17.0347 33.3186 15.3297 34.0516C15.051 33.74 15.1676 33.4284 15.1676 33.15C15.165 28.2541 15.1726 23.3608 15.1777 18.4649C15.1777 16.8891 14.9902 16.6822 13.4448 16.6796C9.69535 16.6694 5.94334 16.6745 2.19386 16.6771C1.08252 16.6737 0.526855 17.2398 0.526855 18.3755C0.526855 51.8321 0.526855 85.2862 0.526855 118.743C0.526855 119.21 0.534456 119.68 0.539523 120.148C0.542056 120.413 0.590191 120.623 0.894203 120.735C1.86704 121.092 2.50547 120.674 2.5232 119.632C2.52827 119.292 2.52573 118.95 2.52573 118.61C2.52827 85.963 2.5308 53.3159 2.53334 20.6664C2.53334 20.2833 2.5536 19.9002 2.53334 19.5171C2.51307 19.088 2.67267 18.9016 3.11349 18.9016C6.14601 18.9016 9.18107 18.8888 12.2136 18.876C12.7507 18.876 12.9534 19.1212 12.928 19.6627C12.8951 20.3854 12.9204 21.1107 12.9204 21.8335C12.8824 50.6931 12.5835 79.55 12.6392 108.41C12.6417 110.266 12.7684 110.427 14.5367 110.422C39.5265 110.376 64.5138 110.328 89.5036 110.277C91.505 110.271 91.6063 110.159 91.6139 108.205C91.6646 93.5635 91.733 78.9218 91.7634 64.2775C91.7938 49.5489 91.7887 34.8229 91.7989 20.0943C91.7989 18.5951 91.657 18.7407 93.1669 18.7407C95.5256 18.7407 97.8867 18.7458 100.245 18.7688C102.533 18.7892 102.533 18.7994 102.525 21.0494C102.525 21.1771 102.525 21.3048 102.525 21.4325C102.525 53.7399 102.523 86.0473 102.52 118.355C102.52 118.909 102.528 119.463 102.505 120.015C102.485 120.564 102.736 120.748 103.263 120.776C104.408 120.837 104.527 120.743 104.527 119.517C104.524 85.7612 104.522 52.0083 104.517 18.2529L104.519 18.2554ZM89.5239 40.4211C89.4656 62.5076 89.4048 84.5915 89.344 106.678C89.3414 108.024 89.3364 108.034 88.0494 108.037C64.078 108.08 40.1067 108.118 16.1353 108.159C14.8889 108.159 14.8813 108.152 14.8838 106.803C14.9421 84.0807 14.8889 61.3558 15.1245 38.6333C15.1346 37.7114 15.4184 37.2031 16.2493 36.7664C20.8881 34.3427 25.8004 33.4667 30.9863 33.7451C37.9153 34.1154 44.4617 36.179 51.0131 38.2273C56.0015 39.7852 60.9746 41.4197 66.1073 42.4132C71.8025 43.5139 77.5154 43.7846 83.1599 41.9816C85.3209 41.292 87.3426 40.2908 89.5213 39.0318C89.5213 39.6626 89.5213 40.0431 89.5213 40.4236L89.5239 40.4211Z" fill="#111827"/>
<path d="M24.2499 50.1567C24.7921 50.6215 25.7193 50.5475 26.2868 49.9447C27.475 48.6882 28.653 47.4189 29.8159 46.1368C30.1224 45.7971 30.4366 45.4268 30.3656 45.0156C30.3428 44.3312 30.0591 43.9328 29.5777 43.6825C28.9647 43.3632 28.3972 43.565 27.9715 44.0145C26.6922 45.3604 25.433 46.7268 24.2094 48.1238C23.6039 48.8134 23.6647 49.651 24.2499 50.1567Z" fill="#111827"/>
<path d="M29.5549 84.354C28.9545 84.0884 28.4706 84.3183 28.0754 84.7397C26.7986 86.0932 25.5192 87.4468 24.2905 88.8464C23.6292 89.5998 23.685 90.2894 24.3158 90.8666C24.9492 91.4437 25.6155 91.431 26.3223 90.6954C27.5814 89.3827 28.7873 88.0189 30.011 86.6704C30.2719 86.3818 30.4416 86.0447 30.4391 85.7025C30.3884 85.0385 30.1199 84.6043 29.5549 84.3566V84.354Z" fill="#111827"/>
<path d="M77.8447 94.3782C76.6211 95.6552 75.443 96.9756 74.2473 98.2807C73.9863 98.5667 73.7912 98.891 73.8571 99.3278C73.7786 99.9637 74.1662 100.367 74.6703 100.612C75.21 100.875 75.7318 100.717 76.1524 100.268C77.3887 98.9421 78.6478 97.6371 79.8613 96.2886C80.5682 95.5045 80.5758 94.7153 79.9804 94.1535C79.418 93.6248 78.511 93.6785 77.8447 94.3757V94.3782Z" fill="#111827"/>
<path d="M42.0448 59.8694C42.4653 59.8975 42.8073 59.7723 43.0835 59.471C44.3679 58.0714 45.6752 56.6897 46.9267 55.2646C47.4765 54.6363 47.3802 53.8727 46.8051 53.3389C46.2503 52.8256 45.5029 52.8281 44.9076 53.4462C43.5927 54.8151 42.3108 56.2198 41.0263 57.6193C40.6032 58.0791 40.6184 58.6435 40.8439 59.1645C41.0618 59.6651 41.4773 59.9485 42.0397 59.8694H42.0448Z" fill="#111827"/>
<path d="M29.0331 64.3617C28.8076 64.3694 28.5036 64.4256 28.2908 64.6376C26.8214 66.0959 25.3925 67.595 24.0853 69.204C23.5862 69.817 23.8142 70.4223 24.3006 70.9049C24.7972 71.3979 25.4356 71.5868 25.9955 71.0505C27.4927 69.6203 28.9191 68.1109 30.1908 66.4739C30.8647 65.6055 30.1756 64.3873 29.0331 64.3592V64.3617Z" fill="#111827"/>
<path d="M78.131 73.5457C76.7579 74.9785 75.4329 76.4547 74.1003 77.9232C73.7127 78.3522 73.7659 78.886 73.961 79.3585C74.1738 79.8744 74.6323 80.094 75.1821 80.0659C75.5393 80.0813 75.8712 80.02 76.1169 79.7518C77.4596 78.2884 78.8176 76.8403 80.1223 75.3463C80.6619 74.7308 80.4719 74.0437 79.9323 73.5227C79.3648 72.9736 78.6681 72.9813 78.1285 73.5457H78.131Z" fill="#111827"/>
<path d="M44.9608 73.8445C43.6079 75.239 42.2981 76.6743 40.9934 78.1122C40.5779 78.5693 40.626 79.1465 40.8693 79.6624C41.0795 80.1043 41.457 80.3826 41.9688 80.3086C42.3868 80.3418 42.7491 80.2677 43.0303 79.9612C44.3477 78.531 45.6752 77.111 46.9672 75.6604C47.5094 75.0526 47.3853 74.4013 46.8482 73.8394C46.3009 73.2674 45.5561 73.2316 44.9608 73.8445Z" fill="#111827"/>
<path d="M57.4937 70.7313C58.1042 71.2727 58.7401 71.2267 59.4773 70.4657C60.7086 69.1913 61.8892 67.8658 63.0976 66.5709C63.3687 66.2798 63.5359 65.9554 63.5511 65.5544C63.5334 64.9619 63.3358 64.4588 62.7505 64.2417C62.1526 64.0195 61.6079 64.1166 61.1519 64.6171C59.9308 65.958 58.6768 67.2707 57.4734 68.6268C56.764 69.4262 56.8071 70.126 57.4937 70.7338V70.7313Z" fill="#111827"/>
<path d="M62.748 84.1395C62.1805 83.879 61.6662 84.0092 61.2583 84.4434C59.9257 85.8583 58.6058 87.2834 57.3036 88.7212C56.9819 89.0762 56.8502 89.4976 57.0706 90.011C57.5266 91.0709 58.5298 91.3339 59.3861 90.4707C60.6934 89.1529 61.9196 87.7482 63.1812 86.3869C63.4244 86.1264 63.5334 85.8174 63.5562 85.4675C63.5334 84.8725 63.313 84.4 62.748 84.1395Z" fill="#111827"/>
<path d="M44.6213 94.7077C43.5015 95.9106 42.3995 97.1288 41.2847 98.3368C40.963 98.6867 40.6894 99.052 40.7325 99.5678C40.6767 100.211 41.039 100.607 41.5609 100.858C42.1208 101.128 42.6325 100.955 43.0429 100.515C44.2539 99.2256 45.4649 97.9308 46.6607 96.6257C47.4207 95.7957 47.479 94.9912 46.8532 94.3936C46.2807 93.8445 45.3028 93.9696 44.6213 94.7026V94.7077Z" fill="#111827"/>
<path d="M75.2049 59.6472C75.5494 59.6472 75.8712 59.5757 76.1195 59.3049C77.4343 57.8773 78.772 56.4701 80.0488 55.0067C80.6138 54.358 80.5276 53.5764 79.9424 53.0835C79.342 52.5804 78.6656 52.5549 78.1234 53.1167C76.7503 54.5444 75.4202 56.0155 74.0902 57.4865C73.7051 57.9105 73.771 58.4417 73.9812 58.9193C74.2067 59.4301 74.6425 59.6676 75.2049 59.6446V59.6472Z" fill="#111827"/>
</svg>
