<svg width="109" height="121" viewBox="0 0 109 121" fill="none" xmlns="http://www.w3.org/2000/svg">
<path d="M106.842 108.609C106.012 108.674 105.168 108.571 104.338 108.641C103.513 108.71 103.343 108.357 103.348 107.604C103.374 103.764 103.358 99.9237 103.353 96.0836C103.35 92.8027 103.384 89.5219 103.319 86.2434C103.298 85.2186 103.64 84.9042 104.608 84.9834C105.479 85.0554 106.357 85.0098 107.232 85.0026C107.794 84.9978 108.071 84.7794 108.064 84.1313C108.035 80.8121 108.035 77.4904 108.064 74.1711C108.069 73.4871 107.818 73.2303 107.167 73.2423C106.292 73.2591 105.414 73.1991 104.544 73.2615C103.63 73.3263 103.317 73.0455 103.324 72.0591C103.37 65.819 103.343 59.5789 103.343 53.3387C103.343 52.1795 103.37 51.0179 103.336 49.8587C103.317 49.237 103.544 48.9946 104.164 49.0162C105.118 49.0498 106.072 49.0162 107.026 49.0354C107.749 49.0474 108.081 48.8194 108.069 47.9914C108.024 44.7514 108.021 41.5113 108.076 38.2712C108.093 37.3616 107.694 37.2056 106.945 37.208C101.377 37.22 95.8074 37.2104 90.2398 37.2176C88.7116 37.2176 88.714 37.232 88.7188 35.6936C88.7212 34.9328 88.7714 34.1695 88.702 33.4159C88.6111 32.4247 88.8575 31.9399 89.9815 32.0623C91.0051 32.1727 92.0478 32.0719 93.081 32.0983C93.985 32.1199 94.6092 31.7047 94.6212 30.8191C94.6355 29.9287 93.9826 29.4871 93.1121 29.4727C91.9187 29.4535 90.7253 29.4487 89.5319 29.4751C88.9436 29.4895 88.6853 29.3287 88.6996 28.6662C88.7427 26.547 88.7499 24.4254 88.7068 22.3061C88.6925 21.5741 88.9986 21.4517 89.6204 21.4709C90.7731 21.5069 91.9283 21.4925 93.081 21.4733C93.9659 21.4589 94.6475 20.8853 94.6475 20.1893C94.6475 19.4669 94.0041 18.9004 93.093 18.8836C91.8996 18.8596 90.7062 18.8452 89.5128 18.8812C88.9005 18.898 88.6733 18.7252 88.6996 18.07C88.7522 16.6732 88.7331 15.2716 88.7212 13.8699C88.7116 12.8907 88.1161 12.1323 87.3771 12.2403C86.5113 12.3699 86.1024 12.9579 86.1096 13.8483C86.1191 15.1276 86.045 16.4116 86.1287 17.686C86.1909 18.6388 85.9039 18.898 84.9496 18.8908C79.3008 18.8452 73.6519 18.8692 68.003 18.8692C64.2649 18.8692 60.5245 18.838 56.7865 18.8884C55.8394 18.9028 55.4974 18.7132 55.5094 17.6692C55.5644 12.6699 55.5166 7.67062 55.5357 2.66892C55.5381 1.8073 55.4783 1.01288 54.835 0.37207H53.6416C53.07 0.83528 52.9074 1.42329 52.9097 2.16491C52.9384 7.36341 52.9026 12.5619 52.9456 17.7604C52.9528 18.6556 52.7328 18.898 51.8312 18.8956C42.327 18.8596 32.8205 18.8548 23.3164 18.8908C22.3789 18.8932 22.1924 18.598 22.2187 17.7364C22.2809 15.6988 22.2522 13.6587 22.2378 11.6187C22.2354 11.1819 22.1924 10.7379 22.0895 10.3155C21.9556 9.75866 21.4319 9.59546 20.9775 9.57146C20.4465 9.54265 19.9826 9.81866 19.7745 10.3779C19.6191 10.7979 19.6095 11.2371 19.6095 11.6787C19.6095 13.7187 19.5401 15.7612 19.6262 17.7964C19.6693 18.7684 19.3201 18.9436 18.4807 18.8932C17.4116 18.8284 16.333 18.8596 15.2592 18.8788C14.2978 18.8956 13.7454 19.3877 13.7788 20.1965C13.8171 21.1565 14.4054 21.4925 15.2855 21.4853C16.4789 21.4757 17.6723 21.5021 18.8657 21.4781C19.4182 21.4661 19.6382 21.6341 19.6286 22.2293C19.5927 24.387 19.588 26.547 19.6119 28.707C19.6191 29.3046 19.3775 29.4703 18.837 29.4607C17.6436 29.4415 16.4502 29.4175 15.2592 29.4727C14.4556 29.5087 13.7501 29.7799 13.774 30.8023C13.7932 31.6231 14.2117 32.0623 15.0296 32.0767C16.2613 32.0959 17.4953 32.1271 18.727 32.0887C19.411 32.0671 19.631 32.3215 19.6047 32.9887C19.564 34.0663 19.5377 35.1512 19.6143 36.2264C19.6693 36.9944 19.4014 37.1936 18.684 37.184C16.4981 37.1552 14.3098 37.1792 12.1215 37.184C8.54129 37.196 4.9635 37.2368 1.38331 37.208C0.441031 37.2008 0.0559879 37.4216 0.077512 38.4656C0.144476 41.5833 0.142084 44.7034 0.0822952 47.821C0.0631626 48.8194 0.460164 49.0834 1.34265 49.0378C2.13666 48.997 2.93544 49.0714 3.72705 49.0186C4.50431 48.9682 4.74108 49.249 4.7363 50.0387C4.70042 54.3564 4.71716 58.6764 4.71716 62.9941C4.71716 66.0734 4.68846 69.1526 4.73151 72.2319C4.74108 73.0119 4.55693 73.3071 3.74379 73.2423C2.835 73.1679 1.91663 73.2303 1.00066 73.2279C0.371675 73.2279 0.0918615 73.4823 0.0966446 74.1687C0.12056 77.488 0.113386 80.8073 0.0894699 84.1265C0.0846867 84.8562 0.491254 85.0074 1.06762 85.0098C1.9812 85.0146 2.89718 85.0218 3.81076 85.0002C4.41822 84.9882 4.7339 85.1298 4.73151 85.8642C4.70521 93.1819 4.7076 100.5 4.72912 107.817C4.72912 108.461 4.52345 108.657 3.90881 108.633C2.91631 108.595 1.92141 108.633 0.92652 108.614C0.409941 108.605 0.094253 108.741 0.0990362 109.341C0.130127 113.018 0.149259 116.695 0.170783 120.372H108.055C108.052 116.854 108.016 113.333 108.067 109.814C108.081 108.847 107.76 108.53 106.833 108.602L106.842 108.609ZM104.147 39.3081C106.397 39.1881 106.397 39.164 106.397 41.4513C106.397 42.0513 106.397 42.6513 106.397 43.2513C106.397 44.2522 106.376 45.253 106.407 46.2514C106.424 46.7698 106.249 46.9234 105.73 46.957C103.329 47.1154 103.334 47.1346 103.343 44.7202C103.35 43.2009 103.365 41.6793 103.329 40.1601C103.315 39.5361 103.53 39.3441 104.147 39.3105V39.3081ZM104.192 75.268C106.395 75.1768 106.395 75.148 106.395 77.344C106.395 77.944 106.395 78.544 106.395 79.144C106.395 80.1425 106.364 81.1433 106.407 82.1417C106.436 82.7897 106.189 82.9577 105.572 82.9361C102.913 82.8425 103.398 83.3345 103.35 80.7545C103.324 79.2352 103.365 77.716 103.322 76.1968C103.303 75.5368 103.503 75.2968 104.19 75.268H104.192ZM3.99969 46.9522C1.80901 47.0386 1.80901 47.0626 1.80184 44.8954C1.80184 44.3362 1.80184 43.7769 1.80184 43.2177H1.8114C1.8114 42.2193 1.84488 41.2185 1.79944 40.2225C1.76835 39.5433 2.0099 39.3369 2.68433 39.3153C4.72673 39.2481 4.72434 39.2168 4.72434 41.2857C4.72434 42.9249 4.69803 44.5618 4.7363 46.201C4.75065 46.7842 4.5641 46.9306 3.99969 46.9546V46.9522ZM3.95186 82.9337C1.29004 82.8665 1.86402 83.2601 1.80423 80.8145C1.76835 79.2976 1.82336 77.7808 1.79227 76.264C1.77792 75.5776 1.95251 75.28 2.71781 75.2704C4.72673 75.2416 4.72434 75.2032 4.72195 77.1808C4.72195 77.86 4.72195 78.5392 4.72195 79.216C4.72195 80.1737 4.69086 81.1337 4.73151 82.0889C4.75543 82.6865 4.60954 82.9481 3.94947 82.9337H3.95186ZM55.5142 28.3038C55.5979 26.3502 55.5668 24.3894 55.519 22.4333C55.5022 21.7109 55.6911 21.4661 56.4421 21.4685C66.0156 21.4925 75.589 21.4925 85.1625 21.4781C85.8417 21.4781 86.1574 21.5885 86.1335 22.3853C86.0737 24.4206 86.0737 26.4606 86.1335 28.4958C86.1574 29.3455 85.8154 29.4727 85.0836 29.4679C80.3172 29.4415 75.5508 29.4535 70.782 29.4535V29.4607C66.0945 29.4607 61.407 29.4391 56.7195 29.4799C55.8179 29.4871 55.4735 29.2902 55.5166 28.3038H55.5142ZM55.519 33.1735C55.4568 32.3479 55.7175 32.0407 56.576 32.0695C58.4032 32.1295 60.2351 32.0935 62.0647 32.0959C69.4618 32.0959 76.859 32.0959 84.2585 32.0959C85.4957 32.0959 86.1151 32.6967 86.1167 33.8983C86.1167 34.3784 86.1191 34.8584 86.1191 35.3384C86.1191 37.208 86.1191 37.2032 84.3111 37.2008C79.8173 37.1984 61.6007 37.2104 56.9874 37.2104C56.0148 37.2104 55.5325 36.7056 55.5405 35.696C55.5453 34.856 55.5835 34.0135 55.519 33.1783V33.1735ZM51.9172 37.2224C47.1891 37.172 42.4586 37.1984 37.7304 37.1984C33.0406 37.1984 28.3507 37.1984 23.6608 37.1984C22.7106 37.1984 22.2402 36.716 22.2498 35.7512C22.2594 34.832 22.3 33.9103 22.2498 32.9959C22.2115 32.2927 22.4961 32.0695 23.1466 32.0911C23.9813 32.1199 24.8159 32.1031 25.6506 32.1031C34.2746 32.0983 42.8986 32.0935 51.5226 32.0911C52.9289 32.0911 52.9289 32.1031 52.9289 33.5095C52.9289 34.388 52.8787 35.2712 52.9432 36.1472C53.003 36.956 52.7973 37.232 51.9172 37.2224ZM22.2283 28.3542C22.2928 26.3574 22.2689 24.3581 22.2283 22.3613C22.2163 21.6965 22.4028 21.4709 23.094 21.4733C32.7512 21.4949 42.4084 21.4925 52.0655 21.4733C52.7328 21.4733 52.9576 21.6485 52.9432 22.3445C52.9002 24.4206 52.8906 26.5014 52.9456 28.5774C52.9671 29.3647 52.6682 29.4823 51.977 29.4775C47.1676 29.4487 42.3605 29.4631 37.5511 29.4631C32.8229 29.4631 28.0924 29.4367 23.3643 29.4823C22.4746 29.4919 22.1996 29.259 22.2283 28.3542ZM6.8624 40.6497C6.8624 39.7649 7.31919 39.3225 8.23278 39.3225C20.1643 39.3273 32.0935 39.3369 44.0251 39.3369C62.598 39.3369 81.1686 39.3297 99.7415 39.3369C101.528 39.3369 101.301 39.1352 101.301 40.9521C101.301 42.6705 101.284 44.3914 101.32 46.1098C101.332 46.7218 101.162 46.9978 100.519 46.9474C99.9663 46.9042 99.4067 46.9378 98.8495 46.9378C83.895 46.9378 68.9429 46.9378 53.9883 46.9378C38.7564 46.9378 23.5245 46.9402 8.29256 46.933C6.67825 46.933 6.87436 47.1706 6.8624 45.4474C6.85045 43.8489 6.86001 42.2481 6.8624 40.6497ZM7.80707 49.0138C38.436 49.0426 69.0672 49.0354 99.6961 49.0354C99.8157 49.0354 99.9376 49.045 100.055 49.0306C100.999 48.9034 101.341 49.2299 101.334 50.2643C101.286 57.4644 101.308 64.6646 101.303 71.8647C101.303 73.2495 101.296 73.2495 99.9472 73.2519C84.6722 73.2519 23.8115 73.2447 8.65608 73.2447C7.4603 73.2447 6.8624 72.6647 6.8624 71.5047C6.8624 64.3453 6.87197 57.186 6.84805 50.0243C6.84805 49.2899 6.95089 49.0162 7.80707 49.0162V49.0138ZM4.46366 118.171C3.76532 118.423 2.90435 118.253 2.11752 118.21C1.73248 118.188 1.80184 117.826 1.80184 117.554C1.80184 115.565 1.81858 113.578 1.79705 111.588C1.78988 111 1.94055 110.765 2.59106 110.748C4.72673 110.685 4.72673 110.654 4.72434 112.848C4.72434 113.405 4.72434 113.962 4.72434 114.518C4.72434 115.195 4.76739 115.874 4.70999 116.546C4.66216 117.108 5.05916 117.958 4.46605 118.171H4.46366ZM100.127 118.279C97.4624 118.21 94.7981 118.25 92.1315 118.25C64.2075 118.25 36.2859 118.253 8.36192 118.248C6.65195 118.248 6.87675 118.505 6.8624 116.705C6.85045 115.145 6.94611 113.578 6.83131 112.027C6.74761 110.889 7.19005 110.738 8.17777 110.741C23.491 110.769 38.8066 110.76 54.1199 110.76C69.3949 110.76 84.6674 110.76 99.9424 110.762C101.318 110.762 101.318 110.767 101.313 112.126C101.308 113.765 101.258 115.406 101.315 117.046C101.349 117.965 101.105 118.303 100.127 118.279ZM6.85284 86.073C6.85284 85.3362 6.88154 84.9642 7.85012 84.9666C23.2375 85.0098 38.6273 84.9954 54.0147 84.9954V85.0074C69.1653 85.0074 84.3135 85.0074 99.4641 85.0074C99.6243 85.0074 99.7822 85.005 99.9424 85.0074C100.859 85.017 101.318 85.473 101.318 86.3754C101.31 93.3715 101.284 100.37 101.318 107.366C101.322 108.341 101.09 108.655 100.079 108.653C69.4212 108.626 38.7636 108.624 8.10602 108.648C7.147 108.648 6.83371 108.451 6.84088 107.424C6.88871 100.308 6.87197 93.1891 6.85523 86.073H6.85284ZM99.9759 82.9505C80.7644 82.9217 61.5553 82.9265 42.3438 82.9265C30.9288 82.9265 19.5138 82.9145 8.09885 82.9457C7.14222 82.9481 6.78587 82.7489 6.83849 81.7193C6.92698 79.9649 6.93893 78.196 6.8361 76.444C6.76913 75.3016 7.31441 75.2728 8.17777 75.2752C22.4961 75.2968 84.4642 75.2872 99.6961 75.2944C101.521 75.2944 101.303 75.1168 101.313 76.876C101.322 78.4768 101.234 80.0801 101.337 81.6737C101.411 82.8065 100.964 82.9553 99.9759 82.9529V82.9505ZM105.558 118.277C102.963 118.176 103.386 118.661 103.355 116.069C103.348 115.51 103.355 114.95 103.355 114.391H103.336C103.336 113.513 103.372 112.63 103.324 111.753C103.288 111.065 103.453 110.755 104.228 110.743C106.395 110.707 106.395 110.671 106.395 112.838C106.395 114.358 106.373 115.877 106.409 117.394C106.426 118.042 106.28 118.306 105.558 118.277Z" fill="#111827"/>
<path d="M15.3979 62.6581C16.2661 62.7085 17.1079 61.9165 17.0983 61.0549C17.0888 60.1933 16.3809 59.4733 15.5199 59.4541C14.6781 59.4349 13.9199 60.1453 13.8745 60.9973C13.8291 61.8157 14.5561 62.6077 15.4003 62.6581H15.3979Z" fill="#111827"/>
<path d="M92.6553 62.6773C93.5737 62.6629 94.2529 61.9165 94.217 60.9589C94.1835 60.0469 93.5115 59.4109 92.6123 59.4373C91.7274 59.4637 91.0769 60.1597 91.096 61.0621C91.1127 61.9501 91.8254 62.6893 92.6553 62.6773Z" fill="#111827"/>
<path d="M15.5271 98.2628C16.3569 98.2484 17.0959 97.4972 17.1103 96.6524C17.1246 95.7692 16.3187 94.9436 15.4649 94.9676C14.6996 94.9892 13.8745 95.8172 13.8386 96.5996C13.8027 97.4132 14.6781 98.2772 15.5271 98.2628Z" fill="#111827"/>
<path d="M92.7199 98.2604C93.6071 98.222 94.2266 97.5356 94.217 96.6044C94.2074 95.7212 93.5091 94.9892 92.6649 94.9748C91.8398 94.9604 91.0984 95.7212 91.0864 96.5948C91.0721 97.5428 91.8159 98.3012 92.7223 98.2604H92.7199Z" fill="#111827"/>
</svg>
