<svg width="105" height="121" viewBox="0 0 105 121" fill="none" xmlns="http://www.w3.org/2000/svg">
<path d="M104.519 18.1158C104.519 16.586 104.499 16.5732 102.971 16.5119C99.308 16.3612 95.6421 16.3331 91.9762 16.3306C89.5593 16.328 89.5315 16.351 89.5289 18.8539C89.5264 24.046 89.5188 29.2408 89.534 34.4329C89.534 35.0586 89.4707 35.549 88.8804 35.9423C85.9771 37.8833 82.8685 39.2982 79.4079 39.8396C77.4622 40.1435 77.4596 40.1359 77.4596 38.1515C77.4596 26.9141 77.4596 15.6768 77.4596 4.43942C77.4596 3.46126 77.4495 2.48055 77.4723 1.50239C77.485 0.963506 77.2747 0.715774 76.73 0.754083C76.4361 0.777069 76.1347 0.800054 75.8458 0.754083C74.8857 0.598293 74.6627 0.986492 74.6653 1.94677C74.7033 12.801 74.6906 23.6553 74.6906 34.5095C74.6906 36.1262 74.6425 37.7454 74.6906 39.362C74.7159 40.1767 74.4018 40.4143 73.657 40.3453C72.4004 40.2278 71.1337 40.2074 69.8847 40.0388C64.8102 39.3544 59.908 37.9242 55.0261 36.4352C53.4807 35.9627 53.4883 35.9295 53.4908 34.249C53.4934 28.5869 53.4959 22.9274 53.501 17.2653C53.501 16.8822 53.4959 16.5068 53.3971 16.1288C53.2223 15.4469 52.7283 15.1175 52.1152 15.097C51.4843 15.074 51.0106 15.4265 50.8155 16.0956C50.6939 16.5145 50.7041 16.9333 50.7015 17.3598C50.699 22.8942 50.6888 28.426 50.6838 33.9579C50.6838 35.0408 50.6838 35.0382 49.7084 34.7419C43.4914 32.8469 37.254 31.0413 30.7077 30.7706C29.783 30.7323 29.446 30.4896 29.4561 29.4323C29.5245 22.4958 29.4967 15.5567 29.4992 8.61767C29.4992 8.10944 29.5271 7.60376 29.3599 7.10318C29.1369 6.4366 28.6328 6.13269 28.0171 6.16589C27.4066 6.19909 26.8695 6.51578 26.7656 7.21811C26.6972 7.67782 26.677 8.14775 26.677 8.61512C26.6719 13.9784 26.677 19.3417 26.677 24.705C26.677 26.4493 26.6567 28.1962 26.6643 29.9405C26.6643 30.5177 26.5756 30.8804 25.8511 30.9136C24.0498 30.9953 22.3043 31.4269 20.5638 31.8917C18.7397 32.3795 17.0347 33.1789 15.3297 33.9119C15.051 33.6003 15.1676 33.2888 15.1676 33.0104C15.165 28.1145 15.1726 23.2211 15.1777 18.3252C15.1777 16.7494 14.9902 16.5426 13.4448 16.54C9.69535 16.5298 5.94334 16.5349 2.19386 16.5374C1.08252 16.534 0.526855 17.1002 0.526855 18.2358C0.526855 51.6925 0.526855 85.1465 0.526855 118.603C0.526855 119.071 0.534456 119.54 0.539523 120.008C0.542056 120.273 0.590191 120.483 0.894203 120.595C1.86704 120.953 2.50547 120.534 2.5232 119.492C2.52827 119.152 2.52573 118.81 2.52573 118.47C2.52827 85.8233 2.5308 53.1763 2.53334 20.5267C2.53334 20.1436 2.5536 19.7605 2.53334 19.3774C2.51307 18.9484 2.67267 18.7619 3.11349 18.7619C6.14601 18.7619 9.18107 18.7492 12.2136 18.7364C12.7507 18.7364 12.9534 18.9816 12.928 19.523C12.8951 20.2458 12.9204 20.9711 12.9204 21.6939C12.8824 50.5534 12.5835 79.4104 12.6392 108.27C12.6417 110.127 12.7684 110.288 14.5367 110.282C39.5265 110.236 64.5138 110.188 89.5036 110.137C91.505 110.132 91.6063 110.019 91.6139 108.066C91.6646 93.4239 91.733 78.7821 91.7634 64.1378C91.7938 49.4092 91.7887 34.6832 91.7989 19.9546C91.7989 18.4555 91.657 18.601 93.1669 18.601C95.5256 18.601 97.8867 18.6061 100.245 18.6291C102.533 18.6496 102.533 18.6598 102.525 20.9098C102.525 21.0375 102.525 21.1652 102.525 21.2929C102.525 53.6003 102.523 85.9076 102.52 118.215C102.52 118.769 102.528 119.323 102.505 119.875C102.485 120.424 102.736 120.608 103.263 120.636C104.408 120.697 104.527 120.603 104.527 119.377C104.524 85.6216 104.522 51.8687 104.517 18.1132L104.519 18.1158ZM89.5239 40.2814C89.4656 62.3679 89.4048 84.4519 89.344 106.538C89.3414 107.884 89.3364 107.895 88.0494 107.897C64.078 107.94 40.1067 107.979 16.1353 108.02C14.8889 108.02 14.8813 108.012 14.8838 106.664C14.9421 83.9411 14.8889 61.2161 15.1245 38.4937C15.1346 37.5717 15.4184 37.0635 16.2493 36.6268C20.8881 34.2031 25.8004 33.3271 30.9863 33.6054C37.9153 33.9758 44.4617 36.0394 51.0131 38.0876C56.0015 39.6455 60.9746 41.28 66.1073 42.2735C71.8025 43.3743 77.5154 43.645 83.1599 41.8419C85.3209 41.1523 87.3426 40.1512 89.5213 38.8921C89.5213 39.5229 89.5213 39.9035 89.5213 40.284L89.5239 40.2814Z" fill="#F9FAFB"/>
<path d="M24.2499 50.0171C24.7921 50.4819 25.7193 50.4078 26.2868 49.8051C27.475 48.5486 28.653 47.2792 29.8159 45.9972C30.1224 45.6575 30.4366 45.2872 30.3656 44.876C30.3428 44.1915 30.0591 43.7931 29.5777 43.5428C28.9647 43.2236 28.3972 43.4253 27.9715 43.8748C26.6922 45.2208 25.433 46.5871 24.2094 47.9841C23.6039 48.6737 23.6647 49.5114 24.2499 50.0171Z" fill="#F9FAFB"/>
<path d="M29.5549 84.2144C28.9545 83.9487 28.4706 84.1786 28.0754 84.6C26.7986 85.9536 25.5192 87.3072 24.2905 88.7067C23.6292 89.4602 23.685 90.1497 24.3158 90.7269C24.9492 91.3041 25.6155 91.2913 26.3223 90.5558C27.5814 89.2431 28.7873 87.8793 30.011 86.5308C30.2719 86.2422 30.4416 85.9051 30.4391 85.5628C30.3884 84.8988 30.1199 84.4646 29.5549 84.2169V84.2144Z" fill="#F9FAFB"/>
<path d="M77.8447 94.2386C76.6211 95.5155 75.443 96.8359 74.2473 98.141C73.9863 98.427 73.7912 98.7514 73.8571 99.1881C73.7786 99.824 74.1662 100.228 74.6703 100.473C75.21 100.736 75.7318 100.577 76.1524 100.128C77.3887 98.8025 78.6478 97.4974 79.8613 96.1489C80.5682 95.3649 80.5758 94.5757 79.9804 94.0138C79.418 93.4852 78.511 93.5388 77.8447 94.236V94.2386Z" fill="#F9FAFB"/>
<path d="M42.0448 59.7297C42.4653 59.7578 42.8073 59.6327 43.0835 59.3313C44.3679 57.9317 45.6752 56.5501 46.9267 55.125C47.4765 54.4967 47.3802 53.7331 46.8051 53.1993C46.2503 52.6859 45.5029 52.6885 44.9076 53.3065C43.5927 54.6755 42.3108 56.0801 41.0263 57.4797C40.6032 57.9394 40.6184 58.5038 40.8439 59.0248C41.0618 59.5254 41.4773 59.8089 42.0397 59.7297H42.0448Z" fill="#F9FAFB"/>
<path d="M29.0331 64.2221C28.8076 64.2298 28.5036 64.286 28.2908 64.4979C26.8214 65.9562 25.3925 67.4554 24.0853 69.0644C23.5862 69.6773 23.8142 70.2826 24.3006 70.7653C24.7972 71.2582 25.4356 71.4472 25.9955 70.9109C27.4927 69.4807 28.9191 67.9713 30.1908 66.3342C30.8647 65.4659 30.1756 64.2476 29.0331 64.2195V64.2221Z" fill="#F9FAFB"/>
<path d="M78.131 73.4061C76.7579 74.8388 75.4329 76.315 74.1003 77.7835C73.7127 78.2126 73.7659 78.7464 73.961 79.2189C74.1738 79.7348 74.6323 79.9544 75.1821 79.9263C75.5393 79.9416 75.8712 79.8803 76.1169 79.6122C77.4596 78.1488 78.8176 76.7007 80.1223 75.2066C80.6619 74.5911 80.4719 73.9041 79.9323 73.3831C79.3648 72.834 78.6681 72.8417 78.1285 73.4061H78.131Z" fill="#F9FAFB"/>
<path d="M44.9608 73.7049C43.6079 75.0993 42.2981 76.5347 40.9934 77.9725C40.5779 78.4297 40.626 79.0069 40.8693 79.5228C41.0795 79.9646 41.457 80.243 41.9688 80.1689C42.3868 80.2021 42.7491 80.1281 43.0303 79.8216C44.3477 78.3914 45.6752 76.9714 46.9672 75.5208C47.5094 74.9129 47.3853 74.2617 46.8482 73.6998C46.3009 73.1277 45.5561 73.0919 44.9608 73.7049Z" fill="#F9FAFB"/>
<path d="M57.4937 70.5916C58.1042 71.1331 58.7401 71.0871 59.4773 70.326C60.7086 69.0516 61.8892 67.7261 63.0976 66.4313C63.3687 66.1401 63.5359 65.8158 63.5511 65.4148C63.5334 64.8223 63.3358 64.3191 62.7505 64.1021C62.1526 63.8799 61.6079 63.9769 61.1519 64.4775C59.9308 65.8183 58.6768 67.131 57.4734 68.4872C56.764 69.2866 56.8071 69.9863 57.4937 70.5942V70.5916Z" fill="#F9FAFB"/>
<path d="M62.748 83.9998C62.1805 83.7393 61.6662 83.8696 61.2583 84.3037C59.9257 85.7186 58.6058 87.1437 57.3036 88.5816C56.9819 88.9366 56.8502 89.358 57.0706 89.8713C57.5266 90.9312 58.5298 91.1943 59.3861 90.3311C60.6934 89.0132 61.9196 87.6086 63.1812 86.2473C63.4244 85.9868 63.5334 85.6778 63.5562 85.3279C63.5334 84.7328 63.313 84.2603 62.748 83.9998Z" fill="#F9FAFB"/>
<path d="M44.6213 94.568C43.5015 95.771 42.3995 96.9892 41.2847 98.1972C40.963 98.5471 40.6894 98.9123 40.7325 99.4282C40.6767 100.072 41.039 100.468 41.5609 100.718C42.1208 100.989 42.6325 100.815 43.0429 100.376C44.2539 99.086 45.4649 97.7911 46.6607 96.4861C47.4207 95.656 47.479 94.8515 46.8532 94.2539C46.2807 93.7048 45.3028 93.83 44.6213 94.5629V94.568Z" fill="#F9FAFB"/>
<path d="M75.2049 59.5075C75.5494 59.5075 75.8712 59.436 76.1195 59.1653C77.4343 57.7376 78.772 56.3304 80.0488 54.867C80.6138 54.2183 80.5276 53.4368 79.9424 52.9439C79.342 52.4408 78.6656 52.4152 78.1234 52.9771C76.7503 54.4047 75.4202 55.8758 74.0902 57.3469C73.7051 57.7708 73.771 58.3021 73.9812 58.7796C74.2067 59.2904 74.6425 59.528 75.2049 59.505V59.5075Z" fill="#F9FAFB"/>
</svg>
