<svg width="113" height="120" viewBox="0 0 113 120" fill="none" xmlns="http://www.w3.org/2000/svg">
<path d="M112.269 102.089C112.274 100.846 112.391 99.6168 111.166 98.7912C110.92 98.6256 110.791 98.2824 110.616 98.016C107.456 93.2232 104.309 88.4208 101.127 83.6424C100.542 82.764 100.1 81.9384 100.107 80.8032C100.258 59.088 100.086 37.3728 100.384 15.66C100.396 14.82 100.42 13.98 100.394 13.14C100.363 12.1656 100.031 11.7552 99.142 11.748C96.0029 11.7216 92.8662 11.7432 89.727 11.7432C88.9912 11.7432 88.6592 12.192 88.5588 12.8496C88.5111 13.1616 88.5445 13.488 88.5445 13.8072C88.5349 41.52 88.5278 69.2328 88.5182 96.948C88.5182 98.3976 87.7936 99.1232 86.3443 99.1248C65.9639 99.1248 45.5836 99.1248 25.2033 99.1224C24.0685 99.1224 24.0542 99.3504 24.0542 97.9632C24.0494 89.8848 24.0327 81.8064 24.0183 73.7304C23.9825 53.6544 23.9467 33.5808 23.9061 13.5048C23.9037 11.856 23.7818 11.7312 22.1406 11.7264C19.5581 11.7192 16.9756 11.7216 14.3932 11.7264C12.2025 11.7312 12.2192 11.7336 12.212 13.9392C12.126 36.2136 12.4294 58.488 12.4868 80.7624C12.4868 81.6024 12.3124 82.3128 11.8561 82.9992C8.85791 87.516 5.87647 92.0424 2.88548 96.5616C2.31452 97.4256 1.85583 98.424 1.11286 99.096C0.451116 99.6912 0.291055 100.26 0.291055 101.057C0.310167 106.735 0.312556 112.414 0.291055 118.092C0.288666 118.853 0.393781 119.51 1.0173 120H111.646C112.152 119.4 112.296 118.718 112.291 117.924C112.257 112.646 112.255 107.366 112.272 102.089H112.269ZM90.7639 98.004C90.7806 89.6448 90.8092 81.288 90.8188 72.9288C90.8403 53.892 90.8546 34.8552 90.8714 15.8184C90.8714 14.556 91.4933 13.9248 92.7371 13.9248C94.2876 13.9248 95.8356 13.9416 97.3861 13.9176C97.9045 13.9104 98.1076 14.088 98.0717 14.6088C98.0407 15.0456 98.0622 15.4872 98.0598 15.9288C97.9786 37.764 97.9021 59.6016 97.8066 81.4368C97.8018 82.3152 98.0192 83.0304 98.5089 83.7624C101.83 88.7328 105.11 93.7344 108.399 98.7264C108.437 98.7864 108.43 98.8752 108.478 99.1272C105.943 99.1272 103.483 99.1272 101.024 99.1272C97.9642 99.1272 94.9063 99.1272 91.8461 99.1224C90.771 99.1224 90.7615 99.1128 90.7639 98.0016V98.004ZM7.4317 93.7368C9.64866 90.3768 11.8704 87.0168 14.1089 83.6688C14.5699 82.9776 14.7706 82.272 14.7611 81.4272C14.4863 59.5512 14.6512 37.6752 14.4433 15.7992C14.4266 13.9248 14.4386 13.9248 16.3235 13.9272C17.7545 13.9272 19.1831 13.9248 20.6141 13.9272C21.7297 13.9296 21.7369 13.9344 21.7488 15.0072C21.7584 15.888 21.7512 16.7664 21.7512 17.6472C21.756 44.4024 21.7608 71.16 21.7655 97.9152C21.7655 98.7216 21.3554 99.1248 20.5352 99.1248C15.4109 99.1248 10.2841 99.1248 5.15978 99.12C4.81816 99.12 4.46459 99.1728 4.01785 98.9712C5.18606 97.1784 6.30171 95.4504 7.43408 93.7344L7.4317 93.7368ZM109.505 108.487C109.505 111.086 109.481 113.686 109.515 116.282C109.524 116.95 109.348 117.192 108.66 117.17C107.19 117.125 105.721 117.158 104.252 117.158C88.2841 117.158 72.3186 117.158 56.3507 117.158C39.0736 117.161 21.7966 117.161 4.51715 117.161C4.27825 117.161 4.03935 117.137 3.80285 117.161C3.21038 117.223 3.0336 116.911 3.04315 116.381C3.0551 115.661 3.05271 114.943 3.05271 114.223C3.04793 110.585 3.01448 106.946 3.05271 103.308C3.06704 101.926 2.71586 101.957 4.39531 101.954C29.1403 101.95 53.8853 101.952 78.6279 101.95C88.4394 101.95 98.2485 101.945 108.06 101.94C108.258 101.94 108.459 101.957 108.655 101.94C109.326 101.878 109.534 102.18 109.522 102.847C109.484 104.726 109.508 106.606 109.505 108.485V108.487Z" fill="#F9FAFB"/>
<path d="M40.089 50.2464C37.5065 50.2008 34.924 50.2272 32.3415 50.2296C31.9473 50.2296 31.5555 50.2032 31.1638 50.34C30.4256 50.6016 29.9908 51.1704 30.1293 51.864C30.2655 52.548 30.6573 53.016 31.4122 53.0496C31.7299 53.064 32.0477 53.0664 32.3654 53.0664C34.9073 53.0664 37.4515 53.0616 39.9934 53.0664C41.0732 53.0688 41.0852 53.0808 41.0852 54.084C41.0852 60.204 41.0852 66.3216 41.0756 72.4416C41.0756 73.4928 41.0589 73.5 40.0316 73.5C37.2891 73.5 34.5489 73.476 31.8064 73.4952C30.7457 73.5024 30.1126 74.0856 30.1102 74.94C30.1102 75.8304 30.6812 76.3176 31.7992 76.3224C34.5418 76.3344 37.2819 76.3272 40.0245 76.332C41.0637 76.332 41.0732 76.3416 41.0732 77.3712C41.0804 81.4104 41.078 85.4496 41.0828 89.4888C41.0828 89.8464 41.0637 90.2184 41.1425 90.5616C41.3169 91.3128 41.8926 91.7184 42.6165 91.668C43.295 91.62 43.8253 91.0872 43.9042 90.3456C43.9328 90.0696 43.9137 89.7864 43.9137 89.5056C43.9161 85.4664 43.9185 81.4272 43.9257 77.388C43.9257 76.344 43.9352 76.332 44.9553 76.3296C52.7027 76.3272 60.4502 76.3272 68.1976 76.3296C69.2082 76.3296 69.2177 76.344 69.2201 77.4072C69.2297 81.4464 69.2344 85.4856 69.232 89.5248C69.232 90.0504 69.2321 90.564 69.5211 91.0296C70.0419 91.8624 71.1002 91.9128 71.7381 91.164C72.0893 90.7512 72.0582 90.2832 72.0582 89.8056C72.0582 85.6872 72.0582 81.5664 72.0582 77.448C72.0582 76.3392 72.0678 76.332 73.1524 76.3296C75.9737 76.3224 78.7951 76.3368 81.6141 76.3152C82.5315 76.308 82.983 75.8544 83.0212 75.0456C83.057 74.2488 82.627 73.6968 81.7933 73.5456C81.4445 73.4808 81.0814 73.4976 80.7254 73.4976C78.1835 73.4952 75.6393 73.5024 73.0974 73.4928C72.0725 73.488 72.0606 73.4736 72.0582 72.4248C72.0534 66.3456 72.0558 60.2664 72.0582 54.1872C72.0582 53.0736 72.0654 53.0712 73.1524 53.0568C73.4701 53.052 73.7878 53.0592 74.1056 53.0592C76.6092 53.0592 79.1128 53.0712 81.6141 53.0424C82.553 53.0328 82.9758 52.6032 83.0188 51.7752C83.0618 50.9448 82.67 50.4504 81.7957 50.2968C81.4469 50.2344 81.0837 50.2464 80.7278 50.2464C78.1859 50.2392 75.6417 50.2464 73.0998 50.2296C72.0701 50.2224 72.0606 50.2032 72.0582 49.1736C72.0534 44.4936 72.0582 39.816 72.0582 35.136C72.0582 33.6168 72.0821 32.0952 72.0486 30.576C72.0343 29.9568 72.2326 29.7336 72.8609 29.7504C74.2513 29.7888 75.6417 29.7648 77.032 29.7624C78.5419 29.7624 80.0517 29.7792 81.5615 29.7504C82.5625 29.7312 83.014 29.2848 83.0236 28.4112C83.0331 27.588 82.5243 27.0432 81.6213 26.9376C81.3465 26.904 81.0646 26.9208 80.7875 26.9208C78.2839 26.9184 75.7802 26.9208 73.279 26.9136C72.063 26.9088 72.0582 26.9016 72.0582 25.68C72.0582 17.8416 72.0486 10.0032 72.0701 2.1624C72.0701 1.3296 71.9937 0.5832 71.3415 0H69.9105C69.2416 0.7728 69.2058 1.6872 69.2105 2.664C69.2344 10.344 69.2225 18.0216 69.2177 25.7016C69.2177 26.904 69.2129 26.9088 68.0853 26.9112C60.3785 26.916 52.6693 26.9184 44.9625 26.9184C43.9352 26.9184 43.9257 26.9088 43.9257 25.8744C43.9209 21.036 43.9233 16.1952 43.9209 11.3568C43.9209 10.9968 43.9591 10.6272 43.8946 10.2792C43.7751 9.636 43.3905 9.2112 42.7144 9.1128C41.9858 9.0096 41.4985 9.3048 41.2022 9.9864C41.0326 10.3752 41.0876 10.7736 41.0876 11.1672C41.0804 15.9264 41.0804 20.6856 41.0804 25.4448C41.0804 25.6848 41.0613 25.9272 41.0852 26.1648C41.1401 26.7408 40.8821 26.9736 40.3231 26.9184C40.1272 26.8992 39.9265 26.9136 39.7282 26.9136C37.2652 26.9136 34.8022 26.916 32.3391 26.9184C32.062 26.9184 31.7801 26.8968 31.5054 26.9352C30.6215 27.06 30.0863 27.6528 30.1174 28.4424C30.1484 29.2488 30.6931 29.7504 31.6344 29.7552C34.4558 29.7696 37.2771 29.7864 40.0961 29.7456C40.8702 29.7336 41.1019 29.952 41.0971 30.7512C41.0637 36.9096 41.0637 43.0704 41.0947 49.2288C41.0995 50.0184 40.8773 50.2632 40.0866 50.2512L40.089 50.2464ZM69.232 72.1128C69.232 73.4928 69.2321 73.4976 67.9086 73.4976C64.1364 73.5 60.3642 73.4976 56.592 73.4976V73.488C52.741 73.488 48.8876 73.4928 45.0365 73.4856C43.9424 73.4856 43.9376 73.4664 43.9352 72.3744C43.9304 66.2976 43.928 60.2232 43.9304 54.1464C43.9304 53.0664 43.94 53.0592 45.0676 53.0568C52.6932 53.0544 60.3164 53.0544 67.942 53.0568C69.2488 53.0568 69.2464 53.0664 69.2464 54.36C69.2416 60.276 69.2392 66.192 69.2368 72.108L69.232 72.1128ZM45.1751 29.7576C52.8413 29.7576 60.5099 29.7576 68.1761 29.76C69.2225 29.76 69.2392 29.7648 69.2392 30.7944C69.2392 36.9936 69.2249 43.1904 69.2464 49.3896C69.2488 50.0856 69.0577 50.256 68.3672 50.2488C64.435 50.2104 60.5027 50.2296 56.5681 50.2296V50.244C52.7935 50.244 49.0213 50.244 45.2468 50.244C43.9352 50.244 43.9328 50.2392 43.9328 48.972C43.928 42.9744 43.9233 36.9744 43.9209 30.9768C43.9209 30.1672 44.3389 29.7616 45.1751 29.76V29.7576Z" fill="#F9FAFB"/>
</svg>
