<svg width="109" height="121" viewBox="0 0 109 121" fill="none" xmlns="http://www.w3.org/2000/svg">
<path d="M106.842 108.47C106.012 108.535 105.168 108.431 104.338 108.501C103.513 108.571 103.343 108.218 103.348 107.464C103.374 103.624 103.358 99.784 103.353 95.9439C103.35 92.6631 103.384 89.3822 103.319 86.1037C103.298 85.0789 103.64 84.7645 104.608 84.8437C105.479 84.9157 106.357 84.8701 107.232 84.8629C107.794 84.8581 108.071 84.6397 108.064 83.9917C108.035 80.6724 108.035 77.3508 108.064 74.0315C108.069 73.3475 107.818 73.0907 107.167 73.1027C106.292 73.1195 105.414 73.0595 104.544 73.1219C103.63 73.1867 103.317 72.9059 103.324 71.9195C103.37 65.6793 103.343 59.4392 103.343 53.1991C103.343 52.0399 103.37 50.8782 103.336 49.719C103.317 49.0974 103.544 48.855 104.164 48.8766C105.118 48.9102 106.072 48.8766 107.026 48.8958C107.749 48.9078 108.081 48.6798 108.069 47.8518C108.024 44.6117 108.021 41.3716 108.076 38.1316C108.093 37.222 107.694 37.066 106.945 37.0684C101.377 37.0804 95.8074 37.0708 90.2398 37.078C88.7116 37.078 88.714 37.0924 88.7188 35.5539C88.7212 34.7931 88.7714 34.0299 88.702 33.2763C88.6111 32.2851 88.8575 31.8003 89.9815 31.9227C91.0051 32.0331 92.0478 31.9323 93.081 31.9587C93.985 31.9803 94.6092 31.565 94.6212 30.6794C94.6355 29.789 93.9826 29.3474 93.1121 29.333C91.9187 29.3138 90.7253 29.309 89.5319 29.3354C88.9436 29.3498 88.6853 29.189 88.6996 28.5266C88.7427 26.4073 88.7499 24.2857 88.7068 22.1665C88.6925 21.4344 88.9986 21.312 89.6204 21.3312C90.7731 21.3672 91.9283 21.3528 93.081 21.3336C93.9659 21.3192 94.6475 20.7456 94.6475 20.0496C94.6475 19.3272 94.0041 18.7608 93.093 18.744C91.8996 18.72 90.7062 18.7056 89.5128 18.7416C88.9005 18.7584 88.6733 18.5856 88.6996 17.9304C88.7522 16.5335 88.7331 15.1319 88.7212 13.7303C88.7116 12.7511 88.1161 11.9927 87.3771 12.1007C86.5113 12.2303 86.1024 12.8183 86.1096 13.7087C86.1191 14.9879 86.045 16.2719 86.1287 17.5464C86.1909 18.4992 85.9039 18.7584 84.9496 18.7512C79.3008 18.7056 73.6519 18.7296 68.003 18.7296C64.2649 18.7296 60.5245 18.6984 56.7865 18.7488C55.8394 18.7632 55.4974 18.5736 55.5094 17.5296C55.5644 12.5303 55.5166 7.53097 55.5357 2.52927C55.5381 1.66765 55.4783 0.873235 54.835 0.232422H53.6416C53.07 0.695631 52.9074 1.28364 52.9097 2.02526C52.9384 7.22376 52.9026 12.4223 52.9456 17.6208C52.9528 18.516 52.7328 18.7584 51.8312 18.756C42.327 18.72 32.8205 18.7152 23.3164 18.7512C22.3789 18.7536 22.1924 18.4584 22.2187 17.5968C22.2809 15.5591 22.2522 13.5191 22.2378 11.479C22.2354 11.0422 22.1924 10.5982 22.0895 10.1758C21.9556 9.61901 21.4319 9.45581 20.9775 9.43181C20.4465 9.40301 19.9826 9.67901 19.7745 10.2382C19.6191 10.6582 19.6095 11.0974 19.6095 11.539C19.6095 13.5791 19.5401 15.6215 19.6262 17.6568C19.6693 18.6288 19.3201 18.804 18.4807 18.7536C17.4116 18.6888 16.333 18.72 15.2592 18.7392C14.2978 18.756 13.7454 19.248 13.7788 20.0568C13.8171 21.0168 14.4054 21.3528 15.2855 21.3456C16.4789 21.336 17.6723 21.3624 18.8657 21.3384C19.4182 21.3264 19.6382 21.4944 19.6286 22.0897C19.5927 24.2473 19.588 26.4073 19.6119 28.5674C19.6191 29.165 19.3775 29.3306 18.837 29.321C17.6436 29.3018 16.4502 29.2778 15.2592 29.333C14.4556 29.369 13.7501 29.6402 13.774 30.6626C13.7932 31.4834 14.2117 31.9227 15.0296 31.9371C16.2613 31.9563 17.4953 31.9875 18.727 31.9491C19.411 31.9275 19.631 32.1819 19.6047 32.8491C19.564 33.9267 19.5377 35.0115 19.6143 36.0867C19.6693 36.8548 19.4014 37.054 18.684 37.0444C16.4981 37.0156 14.3098 37.0396 12.1215 37.0444C8.54129 37.0564 4.9635 37.0972 1.38331 37.0684C0.441031 37.0612 0.0559879 37.282 0.077512 38.326C0.144476 41.4436 0.142084 44.5637 0.0822952 47.6814C0.0631626 48.6798 0.460164 48.9438 1.34265 48.8982C2.13666 48.8574 2.93544 48.9318 3.72705 48.879C4.50431 48.8286 4.74108 49.1094 4.7363 49.899C4.70042 54.2167 4.71716 58.5368 4.71716 62.8545C4.71716 65.9337 4.68846 69.013 4.73151 72.0923C4.74108 72.8723 4.55693 73.1675 3.74379 73.1027C2.835 73.0283 1.91663 73.0907 1.00066 73.0883C0.371675 73.0883 0.0918615 73.3427 0.0966446 74.0291C0.12056 77.3484 0.113386 80.6676 0.0894699 83.9869C0.0846867 84.7165 0.491254 84.8677 1.06762 84.8701C1.9812 84.8749 2.89718 84.8821 3.81076 84.8605C4.41822 84.8485 4.7339 84.9901 4.73151 85.7245C4.70521 93.0423 4.7076 100.36 4.72912 107.678C4.72912 108.321 4.52345 108.518 3.90881 108.494C2.91631 108.455 1.92141 108.494 0.92652 108.475C0.409941 108.465 0.094253 108.602 0.0990362 109.202C0.130127 112.879 0.149259 116.556 0.170783 120.232H108.055C108.052 116.714 108.016 113.193 108.067 109.675C108.081 108.707 107.76 108.391 106.833 108.463L106.842 108.47ZM104.147 39.1684C106.397 39.0484 106.397 39.0244 106.397 41.3116C106.397 41.9117 106.397 42.5117 106.397 43.1117C106.397 44.1125 106.376 45.1133 106.407 46.1117C106.424 46.6302 106.249 46.7838 105.73 46.8174C103.329 46.9758 103.334 46.995 103.343 44.5805C103.35 43.0613 103.365 41.5396 103.329 40.0204C103.315 39.3964 103.53 39.2044 104.147 39.1708V39.1684ZM104.192 75.1283C106.395 75.0371 106.395 75.0083 106.395 77.2044C106.395 77.8044 106.395 78.4044 106.395 79.0044C106.395 80.0028 106.364 81.0036 106.407 82.0021C106.436 82.6501 106.189 82.8181 105.572 82.7965C102.913 82.7029 103.398 83.1949 103.35 80.6148C103.324 79.0956 103.365 77.5764 103.322 76.0571C103.303 75.3971 103.503 75.1571 104.19 75.1283H104.192ZM3.99969 46.8126C1.80901 46.899 1.80901 46.923 1.80184 44.7557C1.80184 44.1965 1.80184 43.6373 1.80184 43.0781H1.8114C1.8114 42.0797 1.84488 41.0788 1.79944 40.0828C1.76835 39.4036 2.0099 39.1972 2.68433 39.1756C4.72673 39.1084 4.72434 39.0772 4.72434 41.146C4.72434 42.7853 4.69803 44.4221 4.7363 46.0613C4.75065 46.6446 4.5641 46.791 3.99969 46.815V46.8126ZM3.95186 82.7941C1.29004 82.7269 1.86402 83.1205 1.80423 80.6748C1.76835 79.158 1.82336 77.6412 1.79227 76.1243C1.77792 75.4379 1.95251 75.1403 2.71781 75.1307C4.72673 75.1019 4.72434 75.0635 4.72195 77.0412C4.72195 77.7204 4.72195 78.3996 4.72195 79.0764C4.72195 80.034 4.69086 80.994 4.73151 81.9493C4.75543 82.5469 4.60954 82.8085 3.94947 82.7941H3.95186ZM55.5142 28.1642C55.5979 26.2105 55.5668 24.2497 55.519 22.2937C55.5022 21.5712 55.6911 21.3264 56.4421 21.3288C66.0156 21.3528 75.589 21.3528 85.1625 21.3384C85.8417 21.3384 86.1574 21.4488 86.1335 22.2457C86.0737 24.2809 86.0737 26.3209 86.1335 28.3562C86.1574 29.2058 85.8154 29.333 85.0836 29.3282C80.3172 29.3018 75.5508 29.3138 70.782 29.3138V29.321C66.0945 29.321 61.407 29.2994 56.7195 29.3402C55.8179 29.3474 55.4735 29.1506 55.5166 28.1642H55.5142ZM55.519 33.0339C55.4568 32.2083 55.7175 31.9011 56.576 31.9299C58.4032 31.9899 60.2351 31.9539 62.0647 31.9563C69.4618 31.9563 76.859 31.9563 84.2585 31.9563C85.4957 31.9563 86.1151 32.5571 86.1167 33.7587C86.1167 34.2387 86.1191 34.7187 86.1191 35.1987C86.1191 37.0684 86.1191 37.0636 84.3111 37.0612C79.8173 37.0588 61.6007 37.0708 56.9874 37.0708C56.0148 37.0708 55.5325 36.566 55.5405 35.5563C55.5453 34.7163 55.5835 33.8739 55.519 33.0387V33.0339ZM51.9172 37.0828C47.1891 37.0324 42.4586 37.0588 37.7304 37.0588C33.0406 37.0588 28.3507 37.0588 23.6608 37.0588C22.7106 37.0588 22.2402 36.5764 22.2498 35.6115C22.2594 34.6923 22.3 33.7707 22.2498 32.8563C22.2115 32.1531 22.4961 31.9299 23.1466 31.9515C23.9813 31.9803 24.8159 31.9635 25.6506 31.9635C34.2746 31.9587 42.8986 31.9539 51.5226 31.9515C52.9289 31.9515 52.9289 31.9635 52.9289 33.3699C52.9289 34.2483 52.8787 35.1315 52.9432 36.0075C53.003 36.8164 52.7973 37.0924 51.9172 37.0828ZM22.2283 28.2146C22.2928 26.2177 22.2689 24.2185 22.2283 22.2217C22.2163 21.5568 22.4028 21.3312 23.094 21.3336C32.7512 21.3552 42.4084 21.3528 52.0655 21.3336C52.7328 21.3336 52.9576 21.5088 52.9432 22.2049C52.9002 24.2809 52.8906 26.3617 52.9456 28.4378C52.9671 29.225 52.6682 29.3426 51.977 29.3378C47.1676 29.309 42.3605 29.3234 37.5511 29.3234C32.8229 29.3234 28.0924 29.297 23.3643 29.3426C22.4746 29.3522 22.1996 29.1194 22.2283 28.2146ZM6.8624 40.51C6.8624 39.6252 7.31919 39.1828 8.23278 39.1828C20.1643 39.1876 32.0935 39.1972 44.0251 39.1972C62.598 39.1972 81.1686 39.19 99.7415 39.1972C101.528 39.1972 101.301 38.9956 101.301 40.8124C101.301 42.5309 101.284 44.2517 101.32 45.9701C101.332 46.5822 101.162 46.8582 100.519 46.8078C99.9663 46.7646 99.4067 46.7982 98.8495 46.7982C83.895 46.7982 68.9429 46.7982 53.9883 46.7982C38.7564 46.7982 23.5245 46.8006 8.29256 46.7934C6.67825 46.7934 6.87436 47.031 6.8624 45.3077C6.85045 43.7093 6.86001 42.1085 6.8624 40.51ZM7.80707 48.8742C38.436 48.903 69.0672 48.8958 99.6961 48.8958C99.8157 48.8958 99.9376 48.9054 100.055 48.891C100.999 48.7638 101.341 49.0902 101.334 50.1246C101.286 57.3248 101.308 64.5249 101.303 71.725C101.303 73.1099 101.296 73.1099 99.9472 73.1123C84.6722 73.1123 23.8115 73.1051 8.65608 73.1051C7.4603 73.1051 6.8624 72.5251 6.8624 71.365C6.8624 64.2057 6.87197 57.0464 6.84805 49.8846C6.84805 49.1502 6.95089 48.8766 7.80707 48.8766V48.8742ZM4.46366 118.032C3.76532 118.284 2.90435 118.113 2.11752 118.07C1.73248 118.048 1.80184 117.686 1.80184 117.415C1.80184 115.425 1.81858 113.438 1.79705 111.448C1.78988 110.86 1.94055 110.625 2.59106 110.608C4.72673 110.546 4.72673 110.515 4.72434 112.708C4.72434 113.265 4.72434 113.822 4.72434 114.379C4.72434 115.056 4.76739 115.735 4.70999 116.407C4.66216 116.968 5.05916 117.818 4.46605 118.032H4.46366ZM100.127 118.14C97.4624 118.07 94.7981 118.111 92.1315 118.111C64.2075 118.111 36.2859 118.113 8.36192 118.108C6.65195 118.108 6.87675 118.365 6.8624 116.565C6.85045 115.005 6.94611 113.438 6.83131 111.887C6.74761 110.75 7.19005 110.599 8.17777 110.601C23.491 110.63 38.8066 110.62 54.1199 110.62C69.3949 110.62 84.6674 110.62 99.9424 110.623C101.318 110.623 101.318 110.627 101.313 111.986C101.308 113.625 101.258 115.267 101.315 116.906C101.349 117.825 101.105 118.164 100.127 118.14ZM6.85284 85.9333C6.85284 85.1965 6.88154 84.8245 7.85012 84.8269C23.2375 84.8701 38.6273 84.8557 54.0147 84.8557V84.8677C69.1653 84.8677 84.3135 84.8677 99.4641 84.8677C99.6243 84.8677 99.7822 84.8653 99.9424 84.8677C100.859 84.8773 101.318 85.3333 101.318 86.2357C101.31 93.2319 101.284 100.23 101.318 107.227C101.322 108.201 101.09 108.515 100.079 108.513C69.4212 108.487 38.7636 108.484 8.10602 108.508C7.147 108.508 6.83371 108.311 6.84088 107.284C6.88871 100.168 6.87197 93.0495 6.85523 85.9333H6.85284ZM99.9759 82.8109C80.7644 82.7821 61.5553 82.7869 42.3438 82.7869C30.9288 82.7869 19.5138 82.7749 8.09885 82.8061C7.14222 82.8085 6.78587 82.6093 6.83849 81.5797C6.92698 79.8252 6.93893 78.0564 6.8361 76.3043C6.76913 75.1619 7.31441 75.1331 8.17777 75.1355C22.4961 75.1571 84.4642 75.1475 99.6961 75.1547C101.521 75.1547 101.303 74.9771 101.313 76.7363C101.322 78.3372 101.234 79.9404 101.337 81.5341C101.411 82.6669 100.964 82.8157 99.9759 82.8133V82.8109ZM105.558 118.137C102.963 118.036 103.386 118.521 103.355 115.929C103.348 115.37 103.355 114.811 103.355 114.252H103.336C103.336 113.373 103.372 112.49 103.324 111.614C103.288 110.925 103.453 110.615 104.228 110.603C106.395 110.567 106.395 110.531 106.395 112.699C106.395 114.218 106.373 115.737 106.409 117.254C106.426 117.902 106.28 118.166 105.558 118.137Z" fill="#F9FAFB"/>
<path d="M15.3979 62.5185C16.2661 62.5689 17.1079 61.7769 17.0983 60.9152C17.0888 60.0536 16.3809 59.3336 15.5199 59.3144C14.6781 59.2952 13.9199 60.0056 13.8745 60.8576C13.8291 61.6761 14.5561 62.4681 15.4003 62.5185H15.3979Z" fill="#F9FAFB"/>
<path d="M92.6553 62.5377C93.5737 62.5233 94.2529 61.7769 94.217 60.8192C94.1835 59.9072 93.5115 59.2712 92.6123 59.2976C91.7274 59.324 91.0769 60.02 91.096 60.9224C91.1127 61.8105 91.8254 62.5497 92.6553 62.5377Z" fill="#F9FAFB"/>
<path d="M15.5271 98.1232C16.3569 98.1088 17.0959 97.3576 17.1103 96.5128C17.1246 95.6295 16.3187 94.8039 15.4649 94.8279C14.6996 94.8495 13.8745 95.6775 13.8386 96.46C13.8027 97.2736 14.6781 98.1376 15.5271 98.1232Z" fill="#F9FAFB"/>
<path d="M92.7199 98.1208C93.6071 98.0824 94.2266 97.396 94.217 96.4648C94.2074 95.5815 93.5091 94.8495 92.6649 94.8351C91.8398 94.8207 91.0984 95.5815 91.0864 96.4552C91.0721 97.4032 91.8159 98.1616 92.7223 98.1208H92.7199Z" fill="#F9FAFB"/>
</svg>
